<?xml version="1.0" standalone="no"?>
<!DOCTYPE svg PUBLIC "-//W3C//DTD SVG 20010904//EN"
 "http://www.w3.org/TR/2001/REC-SVG-20010904/DTD/svg10.dtd">
<svg version="1.0" xmlns="http://www.w3.org/2000/svg"
 width="72.000000pt" height="72.000000pt" viewBox="0 0 72.000000 72.000000"
 preserveAspectRatio="xMidYMid meet">
<metadata>
Created by potrace 1.14, written by Peter Selinger 2001-2017
</metadata>
<g transform="translate(0.000000,72.000000) scale(0.100000,-0.100000)"
fill="#000000" stroke="none">
<path d="M86 625 c-22 -20 -25 -28 -16 -44 5 -11 15 -23 20 -26 16 -10 11 -48
-10 -80 -12 -18 -20 -47 -20 -73 0 -36 6 -49 36 -80 28 -29 34 -42 29 -62 -13
-50 -16 -156 -6 -182 20 -52 28 -28 23 70 -5 108 4 138 40 144 20 3 17 7 -19
26 -79 42 -92 90 -43 164 33 50 32 69 -6 86 -52 24 -8 65 47 43 16 -6 54 -6
105 0 85 10 201 3 221 -13 9 -7 22 -7 43 2 16 7 41 9 55 6 21 -5 24 -10 15
-25 -5 -11 -17 -27 -27 -36 -13 -14 -14 -21 -5 -36 19 -29 54 -119 64 -164 5
-22 13 -94 16 -160 9 -158 27 -151 27 10 0 100 -4 132 -24 190 -13 39 -31 80
-39 93 -13 21 -13 27 0 56 20 40 5 84 -36 105 -24 13 -28 13 -49 -7 l-23 -22
-44 21 c-45 22 -38 22 -229 3 -32 -4 -57 -2 -64 5 -18 18 -53 12 -81 -14z"/>
<path d="M195 491 c-8 -15 8 -20 64 -22 55 -2 75 6 51 21 -19 13 -107 13 -115
1z"/>
<path d="M425 472 c-3 -3 14 -12 37 -19 27 -8 46 -9 52 -3 5 5 8 11 5 13 -8 8
-88 15 -94 9z"/>
<path d="M230 414 c0 -20 31 -74 43 -74 5 0 15 -7 23 -15 10 -10 35 -15 69
-15 48 0 57 4 84 33 34 35 40 57 16 57 -8 0 -15 -7 -15 -16 0 -47 -103 -60
-161 -21 -19 12 -35 33 -37 45 -4 25 -22 30 -22 6z"/>
<path d="M540 164 c0 -12 -6 -15 -25 -10 -20 5 -25 3 -25 -13 0 -10 7 -24 15
-31 13 -10 19 -10 35 5 21 19 28 65 10 65 -5 0 -10 -7 -10 -16z"/>
<path d="M220 141 c0 -5 -9 -11 -21 -14 -13 -4 -19 -12 -17 -23 5 -26 24 -28
47 -3 25 27 27 49 6 49 -8 0 -15 -4 -15 -9z"/>
</g>
</svg>
